<svg width="1633" height="946" fill="none" xmlns="http://www.w3.org/2000/svg"><g filter="url('#a')"><path d="M1124 414.188c0-20.881-.54-43.665 10.5-62.299 9.03-15.241 26.58-18.49 42.48-22.466 22.85-5.711 45.9-8.023 68.87-1.374 5.42 1.567 13.09 6.432 17.96 9.517 9.51 6.023 18.58 9.536 29.43 12.067 10.58 2.469 8.87 20.15 16.19 27.47" stroke="url('#b')" stroke-opacity=".25" stroke-width="205" stroke-linecap="round"/></g><g filter="url('#c')"><path d="M509.436 532.026c-.003 20.881.539 43.665-10.506 62.297-9.034 15.24-26.58 18.487-42.484 22.461-22.845 5.707-45.901 8.016-68.872 1.363-5.411-1.567-13.082-6.434-17.952-9.519-9.51-6.024-18.582-9.538-29.43-12.071-10.583-2.471-8.865-20.152-16.184-27.472" stroke="url('#d')" stroke-opacity=".25" stroke-width="205" stroke-linecap="round"/></g><defs><linearGradient id="b" x1="1120.31" y1="356.568" x2="1289.88" y2="356.735" gradientUnits="userSpaceOnUse"><stop stop-color="#00C5EB"/><stop offset="1" stop-color="#B544FE"/></linearGradient><linearGradient id="d" x1="513.126" y1="589.647" x2="343.549" y2="589.455" gradientUnits="userSpaceOnUse"><stop stop-color="#00C5EB"/><stop offset="1" stop-color="#B544FE"/></linearGradient><filter id="a" x="800.37" y=".5" width="832.558" height="737.188" filterUnits="userSpaceOnUse" color-interpolation-filters="sRGB"><feFlood flood-opacity="0" result="BackgroundImageFix"/><feBlend in="SourceGraphic" in2="BackgroundImageFix" result="shape"/><feGaussianBlur stdDeviation="110.5" result="effect1_foregroundBlur_519_2"/></filter><filter id="c" x=".508" y="208.526" width="832.561" height="737.175" filterUnits="userSpaceOnUse" color-interpolation-filters="sRGB"><feFlood flood-opacity="0" result="BackgroundImageFix"/><feBlend in="SourceGraphic" in2="BackgroundImageFix" result="shape"/><feGaussianBlur stdDeviation="110.5" result="effect1_foregroundBlur_519_2"/></filter></defs></svg>