<svg aria-hidden="true" style="width:0;height:0;position:absolute;overflow:hidden" xmlns="http://www.w3.org/2000/svg"><defs><symbol id="app-name-icon" viewBox="0 0 32 32"><path d="M26.706 9.022a1 1 0 0 1 .294.706v19.273a.999.999 0 0 1-.999.999H5.999A.999.999 0 0 1 5 29.001V3a1 1 0 0 1 1-1h13.272c.277.001.527.113.709.294l6.726 6.728zm-2.012 1.165-5.881-5.881v5.881h5.881zM10 15.063h-.001a.249.249 0 0 0-.249.249v1.501c0 .138.112.25.25.25h12a.25.25 0 0 0 .25-.25v-1.5a.25.25 0 0 0-.25-.249H10zm0 4.249a.25.25 0 0 0-.25.25v1.5a.25.25 0 0 0 .25.249h5.75a.25.25 0 0 0 .25-.249V19.56a.249.249 0 0 0-.249-.249H10z"/></symbol><symbol id="zip-file-icon" viewBox="0 0 32 32"><path d="M11 18.877V17h2v1.877c0 .163.021.327.061.486l.8 3.195L12 23.798l-1.859-1.24.8-3.195c.038-.145.059-.312.059-.484v-.002z"/><path d="M18.586 0H8a4 4 0 0 0-4 4v24a4 4 0 0 0 4 4h16a4 4 0 0 0 4-4V9.414c0-.53-.21-1.039-.586-1.414L20 .586A1.994 1.994 0 0 0 18.586 0zM19 7V3l6 6h-4a2 2 0 0 1-2-2zm-8-1V4H9V2h3v2h2v2h-2v2h2v2h-2v2h2v2h-3v-2H9v-2h2V8H9V6h2zm0 9h2a2 2 0 0 1 2 2v1.877l.8 3.198a1.999 1.999 0 0 1-.825 2.144l-.007.005-1.859 1.239c-.312.21-.696.336-1.109.336s-.797-.125-1.116-.34l.007.005-1.862-1.24a2.002 2.002 0 0 1-.826-2.162l-.003.014.8-3.197v-1.877a2 2 0 0 1 2-2z"/></symbol><symbol id="burger" fill="none"><path d="M1 1h24M1 8h24M1 15h24" stroke="#fff" stroke-width="2" stroke-linecap="round"/></symbol><symbol id="calendar-icon" viewBox="0 0 32 32"><path d="M28 26.666V8a2.67 2.67 0 0 0-2.666-2.666h-2.668V2.667H20v2.667h-8V2.667H9.334v2.667H6.667A2.67 2.67 0 0 0 4.001 8v18.666a2.67 2.67 0 0 0 2.666 2.667h18.668a2.67 2.67 0 0 0 2.666-2.667zM12 24H9.334v-2.666H12V24zm0-5.334H9.334V16H12v2.666zM17.334 24h-2.667v-2.666h2.667V24zm0-5.334h-2.667V16h2.667v2.666zM22.666 24H20v-2.666h2.666V24zm0-5.334H20V16h2.666v2.666zM25.334 12H6.667V9.334h18.667V12z"/></symbol><symbol id="modal-right-arrow" viewBox="0 0 32 32"><path d="M7.383 29.182a1.336 1.336 0 0 0 1.381-.09l-.004.003 17.333-12a1.335 1.335 0 0 0 .005-2.189l-.004-.003-17.333-12a1.333 1.333 0 0 0-2.092 1.096V28.003c0 .509.286.952.706 1.176l.007.003z"/></symbol><symbol id="user-avatar" viewBox="0 0 32 32"><path d="M26.749 24.93a13.912 13.912 0 0 0 3.231-8.942c0-7.726-6.263-13.99-13.99-13.99S2 8.261 2 15.988V16v-.001c0 3.266 1.152 6.427 3.251 8.93l-.021.017c.07.083.15.155.222.239.091.103.187.2.28.299.28.306.564.589.86.86l.01.009c.091.085.186.162.28.242.32.277.648.538.99.782.043.031.083.069.128.101v-.011C10.227 29.051 13.003 30 16 30s5.773-.949 8.043-2.562l-.043.029v.011c.043-.031.082-.07.128-.101.339-.245.67-.505.99-.782.094-.08.189-.159.28-.242.302-.274.59-.566.87-.869.094-.101.19-.198.28-.301.072-.083.152-.155.223-.24l-.023-.016zM16 8l.072-.001a4.5 4.5 0 1 1 0 9.002L15.997 17h.004a4.501 4.501 0 0 1-.004-9h.004zM8.007 24.93A4.996 4.996 0 0 1 13 20h6a4.996 4.996 0 0 1 4.993 4.927v.004c-2.107 1.905-4.914 3.07-7.993 3.07s-5.886-1.165-8.004-3.079l.01.009z"/></symbol><symbol id="clarity_close-line" viewBox="0 0 32 32"><path d="m17.254 16 7.368-7.369a.889.889 0 0 0-1.253-1.251l.001-.001-7.369 7.368L8.632 7.37a.893.893 0 1 0-1.263 1.261L14.746 16l-7.377 7.369a.889.889 0 0 0 .562 1.58.888.888 0 0 0 .689-.326l.001-.002 7.378-7.368 7.369 7.368a.889.889 0 0 0 1.251-1.253l.001.001L17.252 16z"/></symbol><symbol id="dashicons_arrow-right-alt2" viewBox="0 0 32 32"><path d="m9.6 24 8-8-8-8 1.6-3.2L22.4 16 11.2 27.2 9.6 24z"/></symbol><symbol id="os-icon" viewBox="0 0 32 32"><path d="M28.006 2.672h-24a2.675 2.675 0 0 0-2.669 2.666v16a2.673 2.673 0 0 0 2.667 2.667h9.333v2.666h-2.665v2.666h10.666v-2.666h-2.666v-2.666h9.334a2.674 2.674 0 0 0 2.666-2.667v-16a2.674 2.674 0 0 0-2.666-2.666zM14.342 18.226h-.001l-6.334-6.333 1.886-1.885 4.449 4.448 7.779-7.781 1.887 1.886-9.666 9.664z"/></symbol><symbol id="modal-close-icon" viewBox="0 0 32 32"><path d="M23.884 6.707 16 14.59 8.116 6.706a.999.999 0 0 0-1.409 1.412l-.001-.001 7.88 7.884-7.883 7.883a.998.998 0 0 0 1.41 1.412l7.885-7.883 7.884 7.884a.999.999 0 0 0 1.41-1.412l.001.001-7.885-7.884 7.885-7.885a.998.998 0 0 0-1.41-1.412v.001z"/></symbol><symbol id="close-menu__icon" viewBox="0 0 32 32"><path d="M23.884 6.706 16 14.59 8.116 6.706a.996.996 0 0 0-1.672.736c0 .26.099.497.262.674l-.001-.001 7.88 7.884-7.882 7.882a.998.998 0 0 0 1.41 1.412l7.886-7.882 7.884 7.884a.996.996 0 0 0 1.672-.736.992.992 0 0 0-.262-.674l.001.001-7.884-7.884 7.884-7.886a.998.998 0 0 0-1.41-1.412v.002z"/></symbol><symbol id="download-icon" viewBox="0 0 32 32"><path d="M13.501 0h5.002C19.33 0 20 .67 20 1.497V12h5.481c1.113 0 1.669 1.344.881 2.131l-9.506 9.512c-.219.217-.52.351-.853.351s-.634-.134-.853-.351l-9.519-9.512C4.844 13.342 5.4 12 6.512 12H12V1.497C12 .67 12.67 0 13.497 0h.004zM32 23.501v7.002C32 31.33 31.33 32 30.503 32H1.497C.67 32 0 31.33 0 30.503V23.497C0 22.67.67 22 1.497 22H10.669l3.063 3.063a3.202 3.202 0 0 0 4.537 0L21.332 22H30.503c.827 0 1.497.67 1.497 1.497v.004zM24.25 29c0-.688-.562-1.25-1.25-1.25s-1.25.562-1.25 1.25.562 1.25 1.25 1.25 1.25-.562 1.25-1.25zm4 0c0-.688-.562-1.25-1.25-1.25s-1.25.562-1.25 1.25.562 1.25 1.25 1.25 1.25-.562 1.25-1.25z"/></symbol><symbol id="file-download" viewBox="0 0 24 32"><path d="M14.088 8.425V0H1.509C.673 0 0 .663 0 1.487V30.23c0 .824.673 1.487 1.509 1.487h21.132c.836 0 1.509-.663 1.509-1.487V9.912h-8.553c-.83 0-1.509-.669-1.509-1.487zm4.808 13.093-6.064 5.928a1.08 1.08 0 0 1-1.512 0l-6.064-5.928c-.638-.624-.19-1.695.708-1.695h4.1v-4.956c0-.548.45-.991 1.006-.991h2.012a1 1 0 0 1 1.007.991v4.956h4.099c.898 0 1.346 1.071.709 1.695zm4.815-15.014L17.554.433a1.516 1.516 0 0 0-1.063-.434h-.39v7.929h8.05V7.55c0-.39-.157-.768-.44-1.047z"/></symbol><symbol id="scales-icon" viewBox="0 0 32 32"><path d="M26.807 25.481A2.669 2.669 0 0 1 24.144 28H7.856a2.668 2.668 0 0 1-2.663-2.512v-.007L4.156 6.815A2.666 2.666 0 0 1 6.818 4h18.363a2.667 2.667 0 0 1 2.663 2.821v-.007L26.806 25.48zM22.83 11.853c.546-.36.683-1.074.234-1.538a9.643 9.643 0 0 0-2.574-1.896l-.055-.025a10.01 10.01 0 0 0-4.365-1.058h-.008l-.17-.001c-1.537 0-2.994.34-4.301.949l.063-.026a9.75 9.75 0 0 0-2.7 1.84l.003-.003c-.464.45-.353 1.168.182 1.545l2.874 2.031c.534.377 1.286.255 1.838-.097a3.817 3.817 0 0 1 2.005-.59h.002l2.263-2.601a.665.665 0 0 1 1.17.438.66.66 0 0 1-.165.438l.001-.001-1.754 2.016c.238.098.465.221.678.366.541.368 1.287.513 1.833.153l2.945-1.939z"/></symbol><symbol id="language-icon" viewBox="0 0 32 32"><path d="M16 29.334c-1.822 0-3.544-.351-5.166-1.051a13.568 13.568 0 0 1-4.252-2.865 13.539 13.539 0 0 1-2.833-4.162l-.034-.087c-.664-1.503-1.05-3.255-1.05-5.098v-.074.004c0-1.845.351-3.573 1.051-5.183a13.622 13.622 0 0 1 2.865-4.233 13.562 13.562 0 0 1 4.162-2.835l.087-.034c1.502-.663 3.254-1.048 5.095-1.048h.077-.004c1.845 0 3.573.35 5.183 1.05a13.55 13.55 0 0 1 7.065 7.013l.034.087c.701 1.611 1.051 3.338 1.051 5.183 0 1.823-.351 3.544-1.051 5.166a13.566 13.566 0 0 1-2.866 4.25 13.576 13.576 0 0 1-4.146 2.832l-.087.034c-1.611.701-3.337 1.051-5.183 1.051zm0-2.734c.578-.8 1.078-1.634 1.501-2.501s.766-1.789 1.033-2.766h-5.066a15.64 15.64 0 0 0 1.074 2.858l-.041-.092c.472.959.971 1.779 1.533 2.549l-.033-.048zm-3.466-.534a17.24 17.24 0 0 1-1.006-2.158l-.043-.125c-.263-.66-.52-1.477-.724-2.316l-.027-.133H6.8a11.192 11.192 0 0 0 2.401 2.887l.015.013a9.548 9.548 0 0 0 3.25 1.814l.068.019zm6.932 0a9.613 9.613 0 0 0 3.33-1.844l-.013.011a11.154 11.154 0 0 0 2.389-2.847l.028-.052h-3.934c-.23.973-.487 1.79-.794 2.583l.046-.134a18.108 18.108 0 0 1-1.1 2.378l.048-.095zm-13.799-7.4h4.534a16.34 16.34 0 0 1-.147-1.25l-.004-.066c-.032-.4-.05-.867-.05-1.338v-.013V16c0-.466.017-.917.049-1.349.034-.434.085-.873.151-1.318H5.666a10.44 10.44 0 0 0-.333 2.645v.023V16v.013c0 .943.122 1.857.352 2.728l-.017-.074zm7.2 0h6.267c.066-.443.117-.883.151-1.317a18.336 18.336 0 0 0 0-2.699 19.213 19.213 0 0 0-.151-1.318h-6.267a17.64 17.64 0 0 0-.199 2.666v.037c0 .928.073 1.839.213 2.728l-.013-.098zm8.934 0h4.534a10.36 10.36 0 0 0 .331-2.623v-.046.002-.017c0-.941-.122-1.854-.35-2.724l.017.074h-4.534c.127.8.2 1.724.201 2.665v.042c0 .927-.073 1.836-.213 2.724l.013-.098zm-.532-8h3.933A11.143 11.143 0 0 0 22.8 7.779l-.015-.013a9.54 9.54 0 0 0-3.248-1.814l-.068-.019c.4.733.75 1.494 1.05 2.282.299.789.549 1.606.749 2.45zm-7.802 0h5.067a15.713 15.713 0 0 0-1.074-2.858l.041.092a16.91 16.91 0 0 0-1.535-2.548l.033.048c-.577.8-1.078 1.634-1.499 2.501a15.745 15.745 0 0 0-1.034 2.766zm-6.666 0h3.934c.2-.845.45-1.661.751-2.45.299-.789.649-1.55 1.049-2.282a9.617 9.617 0 0 0-3.331 1.844l.013-.011a11.154 11.154 0 0 0-2.389 2.847l-.028.052z"/></symbol><symbol id="icon-android" viewBox="0 0 60 60"><circle cx="30" cy="30" r="30" fill="transparent"/><path d="M19.918 39.23c0 .94.796 1.707 1.776 1.707h2.03v4.837C23.723 47 24.743 48 25.998 48c1.259 0 2.276-.996 2.276-2.226v-4.841h3.542v4.837c0 1.226 1.021 2.226 2.276 2.226 1.258 0 2.275-.996 2.275-2.226v-4.837h2.03c.98 0 1.775-.767 1.775-1.708V23.347H19.918V39.23Zm14.883-24.11 1.872-2.612c.108-.153.083-.358-.063-.458-.146-.097-.354-.048-.463.104l-1.942 2.716a11.843 11.843 0 0 0-4.2-.755c-1.497 0-2.922.27-4.202.755l-1.942-2.712c-.108-.152-.317-.205-.463-.104-.146.096-.17.297-.062.458l1.871 2.611c-2.976 1.334-5.06 3.861-5.326 6.814h20.255c-.275-2.957-2.363-5.484-5.335-6.818Zm-9.073 4.117a1.15 1.15 0 0 1-.623-.182 1.09 1.09 0 0 1-.413-.485 1.044 1.044 0 0 1-.064-.624c.044-.21.15-.402.307-.554a1.16 1.16 0 0 1 1.222-.234c.205.082.38.22.503.398.123.178.19.387.19.6-.002.287-.12.562-.33.764-.21.203-.495.317-.792.317Zm8.686 0a1.15 1.15 0 0 1-.623-.182 1.09 1.09 0 0 1-.413-.485 1.044 1.044 0 0 1-.064-.624c.043-.21.15-.402.307-.554a1.16 1.16 0 0 1 1.222-.234c.204.082.38.22.503.398.123.178.189.387.189.6-.001.287-.12.562-.33.764-.21.203-.494.317-.791.317Zm9.31 4.046c-1.258 0-2.275.997-2.275 2.226v8.694c0 1.226 1.02 2.226 2.275 2.226 1.26 0 2.276-.996 2.276-2.226v-8.698c.004-1.23-1.013-2.222-2.276-2.222Zm-27.448 0c-1.26 0-2.276.997-2.276 2.226v8.694c0 1.226 1.021 2.226 2.276 2.226 1.258 0 2.275-.996 2.275-2.226v-8.698c0-1.23-1.02-2.222-2.275-2.222Z"/></symbol><symbol id="icon-apple" viewBox="0 0 60 60"><circle cx="30" cy="30" r="30" fill="transparent"/><path d="M37.282 20c-3.15 0-4.482 1.514-6.676 1.514-2.25 0-3.966-1.503-6.696-1.503-2.673 0-5.523 1.643-7.332 4.441-2.542 3.947-2.11 11.38 2.006 17.712C20.056 44.43 22.021 46.972 24.6 47h.047c2.241 0 2.907-1.478 5.991-1.495h.047c3.038 0 3.648 1.486 5.88 1.486h.047c2.578-.027 4.65-2.844 6.122-5.102 1.06-1.624 1.453-2.439 2.266-4.276-5.954-2.276-6.91-10.773-1.022-14.032-1.797-2.265-4.323-3.578-6.704-3.578l.008-.003ZM36.936 12c-1.814.121-3.93 1.255-5.17 2.736-1.124 1.342-2.049 3.333-1.686 5.264h.145c1.932 0 3.909-1.142 5.063-2.606C36.401 16 37.244 14.026 36.936 12Z"/></symbol><symbol id="icon-facebook" viewBox="0 0 40 40"><circle cx="20" cy="20" r="18" fill="transparent"/><path d="M24.5 14.13h-2.855c-.339 0-.715.445-.715 1.037v2.062h3.573l-.54 2.941H20.93V29h-3.37v-8.83h-3.058v-2.94h3.058V15.5c0-2.482 1.722-4.5 4.085-4.5H24.5v3.13Z" fill="#fff"/></symbol><symbol id="icon-facebook-hovered" viewBox="0 0 40 40"><path d="M24.5 14.63h.5V10.5h-3.355c-2.692 0-4.585 2.297-4.585 5v1.23h-3.058v3.94h3.058v8.83h4.37v-8.83h2.949l.075-.41.54-2.94.109-.59H21.43v-1.563c0-.192.062-.347.133-.444a.275.275 0 0 1 .098-.093h2.84ZM1.5 20C1.5 9.783 9.783 1.5 20 1.5S38.5 9.783 38.5 20 30.217 38.5 20 38.5 1.5 30.217 1.5 20Z" fill="#06071b"/><path d="M24.5 14.13h-2.855c-.339 0-.715.445-.715 1.037v2.062h3.573l-.54 2.941H20.93V29h-3.37v-8.83h-3.058v-2.94h3.058V15.5c0-2.482 1.722-4.5 4.085-4.5H24.5v3.13Z" stroke="transparent" stroke-width="2"/></symbol><symbol id="icon-twitter" viewBox="0 0 40 40"><path d="M20 1C9.506 1 1 9.506 1 20s8.506 19 19 19 19-8.506 19-19S30.494 1 20 1Zm7.729 15.564c.008.163.01.325.01.483 0 4.948-3.763 10.65-10.646 10.65a10.559 10.559 0 0 1-5.736-1.682c.29.035.59.05.893.05a7.495 7.495 0 0 0 4.647-1.602 3.75 3.75 0 0 1-3.495-2.597 3.76 3.76 0 0 0 1.688-.065 3.744 3.744 0 0 1-3.003-3.67v-.045c.505.28 1.083.45 1.696.47a3.74 3.74 0 0 1-1.157-5 10.639 10.639 0 0 0 7.712 3.913 3.743 3.743 0 0 1 6.377-3.414 7.513 7.513 0 0 0 2.375-.909 3.76 3.76 0 0 1-1.644 2.072 7.52 7.52 0 0 0 2.149-.591 7.589 7.589 0 0 1-1.866 1.937Z" fill="transparent" stroke="transparent"/><path d="M27.729 16.564c.008.162.01.325.01.483 0 4.948-3.763 10.65-10.646 10.65a10.56 10.56 0 0 1-5.736-1.682c.29.035.59.05.893.05a7.495 7.495 0 0 0 4.647-1.602 3.75 3.75 0 0 1-3.496-2.597c.56.107 1.138.085 1.689-.065a3.744 3.744 0 0 1-3.003-3.67v-.045c.505.28 1.083.45 1.696.47a3.74 3.74 0 0 1-1.157-5 10.64 10.64 0 0 0 7.712 3.913 3.742 3.742 0 0 1 6.377-3.414 7.513 7.513 0 0 0 2.375-.909 3.76 3.76 0 0 1-1.644 2.072 7.516 7.516 0 0 0 2.149-.591 7.587 7.587 0 0 1-1.866 1.937Z" fill="#fff"/></symbol><symbol id="icon-twitter-hovered" viewBox="0 0 40 40"><path d="m27.436 16.159-.22.159.013.27c.008.151.01.304.01.46 0 4.732-3.597 10.149-10.146 10.149h-.001a10.06 10.06 0 0 1-3.727-.71 7.983 7.983 0 0 0 3.84-1.63l1.103-.866-1.402-.028a3.25 3.25 0 0 1-2.695-1.532c.34-.008.68-.058 1.01-.148l-.032-.972a3.245 3.245 0 0 1-2.515-2.437c.347.106.714.169 1.093.18l1.754.058-1.46-.973a3.241 3.241 0 0 1-1.297-3.666 11.142 11.142 0 0 0 7.549 3.495l.665.034-.153-.648a3.242 3.242 0 0 1 5.525-2.958l.19.203.272-.054a8.02 8.02 0 0 0 1.036-.278c-.195.2-.416.377-.66.523l.317.925a8.03 8.03 0 0 0 .587-.093 7.083 7.083 0 0 1-.656.537Z" stroke="transparent" fill="#06071B"/><path d="M20 1C9.506 1 1 9.506 1 20s8.506 19 19 19 19-8.506 19-19S30.494 1 20 1Zm7.729 15.564c.008.163.01.325.01.483 0 4.948-3.763 10.65-10.646 10.65a10.559 10.559 0 0 1-5.736-1.682c.29.035.59.05.893.05a7.495 7.495 0 0 0 4.647-1.602 3.75 3.75 0 0 1-3.495-2.597 3.76 3.76 0 0 0 1.688-.065 3.744 3.744 0 0 1-3.003-3.67v-.045c.505.28 1.083.45 1.696.47a3.74 3.74 0 0 1-1.157-5 10.639 10.639 0 0 0 7.712 3.913 3.743 3.743 0 0 1 6.377-3.414 7.513 7.513 0 0 0 2.375-.909 3.76 3.76 0 0 1-1.644 2.072 7.52 7.52 0 0 0 2.149-.591 7.589 7.589 0 0 1-1.866 1.937Z" stroke="transparent" fill="#06071B"/></symbol><symbol id="icon-linkedin" viewBox="0 0 40 40"><path d="M15.349 28.375h.5V14.993h-4.848v13.382h4.348Zm.627-16.327v-.011c-.015-.659-.254-1.267-.705-1.713-.452-.448-1.083-.698-1.82-.698-.735 0-1.377.25-1.838.693a2.369 2.369 0 0 0-.713 1.729c0 1.34 1.01 2.425 2.502 2.425.76 0 1.408-.255 1.87-.705.46-.45.704-1.063.704-1.72ZM29.4 28.375h.5v-7.82c0-1.907-.497-3.375-1.394-4.373-.902-1.003-2.154-1.47-3.535-1.47-1.607 0-2.768.65-3.516 1.354l-.064-.625-.046-.45h-4.318l.024.524c.052 1.108.1 2.392.1 3.927v8.931h4.85v-7.639c0-.352.03-.62.091-.772l.003-.006c.235-.595.724-1.124 1.508-1.124.544 0 .868.2 1.08.519.235.352.37.908.37 1.662v7.362H29.4ZM1.5 20C1.5 9.783 9.783 1.5 20 1.5S38.5 9.783 38.5 20 30.217 38.5 20 38.5 1.5 30.217 1.5 20Z" fill="transparent" stroke="transparent"/><path d="M28.9 20.554v6.821h-2.847v-6.362c0-.842-.144-1.628-.536-2.217-.415-.622-1.065-.964-1.913-.964-1.34 0-2.113.936-2.437 1.754-.143.35-.165.793-.165 1.148v6.64h-2.85v-7.932c0-1.32-.035-2.455-.078-3.45h2.369l.13 1.27.046.45h.805l.147-.235c.44-.7 1.538-1.765 3.4-1.765 1.15 0 2.113.382 2.793 1.139.684.761 1.137 1.963 1.137 3.703ZM14.85 27.375H12V15.993h2.848v11.382ZM13.4 13.473c-.939 0-1.5-.637-1.5-1.425 0-.416.152-.764.406-1.009.255-.245.638-.413 1.144-.413.504 0 .873.167 1.117.409.245.242.397.592.408 1.018-.002.405-.15.752-.403.999s-.64.421-1.172.421Z" fill="#fff" stroke="#fff"/></symbol><symbol id="icon-linkedin-hovered" viewBox="0 0 40 40"><path d="M15.349 28.375h.5V14.993h-4.848v13.382h4.348Zm.627-16.327v-.011c-.015-.659-.254-1.267-.705-1.713-.452-.448-1.083-.698-1.82-.698-.735 0-1.377.25-1.838.693a2.369 2.369 0 0 0-.713 1.729c0 1.34 1.01 2.425 2.502 2.425.76 0 1.408-.255 1.87-.705.46-.45.704-1.063.704-1.72ZM29.4 28.375h.5v-7.82c0-1.907-.497-3.375-1.394-4.373-.902-1.003-2.154-1.47-3.535-1.47-1.607 0-2.768.65-3.516 1.354l-.064-.625-.046-.45h-4.318l.024.524c.052 1.108.1 2.392.1 3.927v8.931h4.85v-7.639c0-.352.03-.62.091-.772l.003-.006c.235-.595.724-1.124 1.508-1.124.544 0 .868.2 1.08.519.235.352.37.908.37 1.662v7.362H29.4ZM1.5 20C1.5 9.783 9.783 1.5 20 1.5S38.5 9.783 38.5 20 30.217 38.5 20 38.5 1.5 30.217 1.5 20Z" stroke="transparent" fill="#06071B"/><path d="M28.9 20.554v6.821h-2.847v-6.362c0-.842-.144-1.628-.536-2.217-.415-.622-1.065-.964-1.913-.964-1.34 0-2.113.936-2.437 1.754-.143.35-.165.793-.165 1.148v6.64h-2.85v-7.932c0-1.32-.035-2.455-.078-3.45h2.369l.13 1.27.046.45h.805l.147-.235c.44-.7 1.538-1.765 3.4-1.765 1.15 0 2.113.382 2.793 1.139.684.761 1.137 1.963 1.137 3.703ZM14.85 27.375H12V15.993h2.848v11.382ZM13.4 13.473c-.939 0-1.5-.637-1.5-1.425 0-.416.152-.764.406-1.009.255-.245.638-.413 1.144-.413.504 0 .873.167 1.117.409.245.242.397.592.408 1.018-.002.405-.15.752-.403.999s-.64.421-1.172.421Z" stroke="transparent" fill="#06071B"/></symbol></defs></svg>