<svg xmlns="http://www.w3.org/2000/svg" width="689" viewBox="0 0 516.75 228" height="304" version="1.0">
  <defs>
    <clipPath id="a">
      <path d="M75.3 75.49h77.25v77.25H75.3Zm0 0"/>
    </clipPath>
  </defs>
  <g clip-path="url(#a)">
    <path fill="#d9d9d9" d="M150.91 127.15c-.8 0-1.46-.66-1.46-1.47V80.65l-24.86 24.92a1.46 1.46 0 1 1-2.07-2.07l27.36-27.43a1.47 1.47 0 0 1 2.5 1.04v48.57c0 .81-.66 1.47-1.47 1.47Zm-73.97 25.59c-.81 0-1.47-.66-1.47-1.47V100.1a1.47 1.47 0 0 1 2.5-1.04l25.53 25.6c.57.56.57 1.5 0 2.07-.57.57-1.5.57-2.07 0L78.4 103.63v47.64c0 .81-.65 1.47-1.46 1.47Zm73.97 0c-.37 0-.75-.14-1.03-.43L75.9 78.14a1.46 1.46 0 1 1 2.07-2.07l73.98 74.16a1.47 1.47 0 0 1-1.04 2.5"/>
  </g>
  <g fill="#fff">
    <path d="M191.37 124.84h-3.01V106.7l-13.11 18.13h-1.55l-13.1-18.13v18.13h-3.02v-24.29h2.26l14.64 20.22 14.61-20.22h2.28ZM218.9 124.84c2.08 0 3.85-.74 5.32-2.2a7.27 7.27 0 0 0 2.22-5.34v-9.23c0-2.08-.75-3.86-2.22-5.33a7.23 7.23 0 0 0-5.31-2.22h-14.07c-2.07 0-3.85.75-5.33 2.22a7.26 7.26 0 0 0-2.2 5.33v9.23c0 2.08.74 3.86 2.2 5.33a7.29 7.29 0 0 0 5.33 2.2Zm0-3.02h-14.06c-1.24 0-2.3-.44-3.18-1.33a4.33 4.33 0 0 1-1.33-3.19v-9.23c0-1.24.44-2.3 1.33-3.19a4.32 4.32 0 0 1 3.18-1.34h14.07a4.3 4.3 0 0 1 3.18 1.34 4.36 4.36 0 0 1 1.33 3.19v9.23c0 1.25-.44 2.3-1.33 3.2a4.3 4.3 0 0 1-3.18 1.32ZM255.97 124.84h-23.6v-24.29h23.6c1.52 0 2.82.55 3.9 1.63a5.28 5.28 0 0 1 1.62 3.89v2.6c0 1.6-.57 2.93-1.72 4.02a5.34 5.34 0 0 1 1.72 4.02v2.61c0 1.52-.54 2.82-1.62 3.9a5.3 5.3 0 0 1-3.9 1.62Zm0-3.02a2.4 2.4 0 0 0 1.77-.73c.49-.5.73-1.08.73-1.77v-2.61a2.4 2.4 0 0 0-.7-1.73 2.52 2.52 0 0 0-1.72-.79h-20.67v7.63Zm.08-10.64a2.44 2.44 0 0 0 1.72-.77c.47-.47.7-1.05.7-1.73v-2.61c0-.69-.24-1.27-.73-1.77a2.42 2.42 0 0 0-1.77-.73h-20.59v7.6ZM270.44 124.84v-24.29h-3.02v24.29ZM299.87 124.84v-3.02h-19.64v-21.3h-3.02v24.32ZM332.07 124.84h-27.63v-24.32h27.63v3.02h-24.61v7.64h21.77v3.01h-21.77v7.63h24.6ZM369.54 124.84h-3.64l-3.7-5.49h-19.75l-3.69 5.49h-3.64l16.4-24.29h1.6Zm-9.37-8.5-7.85-11.6-7.83 11.6ZM376.46 124.84h-3.02v-24.29h23.61c1.52 0 2.82.55 3.9 1.63a5.28 5.28 0 0 1 1.62 3.89v4.1c0 1.54-.55 2.85-1.63 3.93a5.3 5.3 0 0 1-3.89 1.61h-20.6Zm20.59-12.15a2.4 2.4 0 0 0 1.77-.73c.48-.5.73-1.1.73-1.78v-4.11c0-.69-.25-1.27-.73-1.77a2.42 2.42 0 0 0-1.77-.73h-20.6v9.12ZM411.51 124.84h-3.01v-24.29h23.6c1.53 0 2.82.55 3.9 1.63a5.28 5.28 0 0 1 1.62 3.89v4.1c0 1.54-.54 2.85-1.62 3.93a5.3 5.3 0 0 1-3.9 1.61h-20.59Zm20.6-12.15a2.4 2.4 0 0 0 1.76-.73c.5-.5.74-1.1.74-1.78v-4.11c0-.69-.25-1.27-.74-1.77a2.42 2.42 0 0 0-1.76-.73h-20.6v9.12Zm0 0"/>
  </g>
</svg>
