<svg width="320" height="1886" fill="none" xmlns="http://www.w3.org/2000/svg">
  <g filter="url(#a)">
    <path d="M5.004 410.057c24.82-29.648 51.339-62.466 84.857-79.406 27.416-13.855 49.345-3.345 70.445 4.718 30.31 11.582 56.799 28.173 72.548 57.415 3.71 6.889 5.827 20.41 7.175 28.988 2.634 16.75 7.801 29.558 15.963 42.503 7.961 12.628-14.82 36.254-15.983 52.957" stroke="url(#b)" stroke-opacity=".2" stroke-width="205" stroke-linecap="round"/>
  </g>
  <g filter="url(#c)">
    <path d="M349.839 1189.01c3.178 33.86-3.416 71.03-12.471 94.49-6.262 16.21-15.157 30.49-25.23 35.17-9.631 4.48-20.344 3.56-30.402 4.5-7.685.72-15.016.07-22.855-1.84-7.589-1.84-15.013-.91-22.591-2.38-34.446-6.66-82.28-14.46-100.189 52.08-4.941 18.36-12.795 34.16-20.034 48.02-9.821 18.81-19.278 39.57-29.57 57.14-7.124 12.16-15.421 23.06-24.052 30.48-7.38 6.34-14.331 8.27-22.663 9.05l-28.44 2.67c-6.83.64-11.945-1.64-16.261 8.63-9.23 21.94-23.486 45.95-39.958 34.04" stroke="url(#d)" stroke-opacity=".25" stroke-width="205" stroke-linecap="round"/>
  </g>
  <defs>
    <linearGradient id="b" x1="69.684" y1="325.057" x2="244.188" y2="471.353" gradientUnits="userSpaceOnUse">
      <stop stop-color="#00C5EB"/>
      <stop offset="1" stop-color="#B544FE"/>
    </linearGradient>
    <linearGradient id="d" x1="430.934" y1="1184.19" x2="-37.564" y2="1310.32" gradientUnits="userSpaceOnUse">
      <stop stop-color="#00C5EB"/>
      <stop offset=".448" stop-color="#3D99F1" stop-opacity=".62"/>
      <stop offset="1" stop-color="#B544FE"/>
    </linearGradient>
    <filter id="a" x="-318.498" y=".542" width="899.655" height="840.194" filterUnits="userSpaceOnUse" color-interpolation-filters="sRGB">
      <feFlood flood-opacity="0" result="BackgroundImageFix"/>
      <feBlend in="SourceGraphic" in2="BackgroundImageFix" result="shape"/>
      <feGaussianBlur stdDeviation="110.5" result="effect1_foregroundBlur_520_4"/>
    </filter>
    <filter id="c" x="-366.385" y="867.5" width="1038.53" height="1018.25" filterUnits="userSpaceOnUse" color-interpolation-filters="sRGB">
      <feFlood flood-opacity="0" result="BackgroundImageFix"/>
      <feBlend in="SourceGraphic" in2="BackgroundImageFix" result="shape"/>
      <feGaussianBlur stdDeviation="109.5" result="effect1_foregroundBlur_520_4"/>
    </filter>
  </defs>
</svg>
